<svg width="33" height="41" viewBox="0 0 33 41" fill="none" xmlns="http://www.w3.org/2000/svg">
<path d="M24 25.5C24 25.8978 23.842 26.2794 23.5607 26.5607C23.2794 26.842 22.8978 27 22.5 27H10.5C10.1022 27 9.72064 26.842 9.43934 26.5607C9.15804 26.2794 9 25.8978 9 25.5C9 25.1022 9.15804 24.7206 9.43934 24.4393C9.72064 24.158 10.1022 24 10.5 24H22.5C22.8978 24 23.2794 24.158 23.5607 24.4393C23.842 24.7206 24 25.1022 24 25.5ZM22.5 18H10.5C10.1022 18 9.72064 18.158 9.43934 18.4393C9.15804 18.7206 9 19.1022 9 19.5C9 19.8978 9.15804 20.2794 9.43934 20.5607C9.72064 20.842 10.1022 21 10.5 21H22.5C22.8978 21 23.2794 20.842 23.5607 20.5607C23.842 20.2794 24 19.8978 24 19.5C24 19.1022 23.842 18.7206 23.5607 18.4393C23.2794 18.158 22.8978 18 22.5 18ZM33 6V37.5C33 38.2957 32.6839 39.0587 32.1213 39.6213C31.5587 40.1839 30.7956 40.5 30 40.5H3C2.20435 40.5 1.44129 40.1839 0.87868 39.6213C0.31607 39.0587 0 38.2957 0 37.5V6C0 5.20435 0.31607 4.44129 0.87868 3.87868C1.44129 3.31607 2.20435 3 3 3H9.79875C10.6416 2.05636 11.6742 1.30136 12.829 0.784425C13.9838 0.267489 15.2348 0.000274658 16.5 0.000274658C17.7652 0.000274658 19.0162 0.267489 20.171 0.784425C21.3258 1.30136 22.3584 2.05636 23.2013 3H30C30.7956 3 31.5587 3.31607 32.1213 3.87868C32.6839 4.44129 33 5.20435 33 6ZM10.5 9H22.5C22.5 7.4087 21.8679 5.88258 20.7426 4.75736C19.6174 3.63214 18.0913 3 16.5 3C14.9087 3 13.3826 3.63214 12.2574 4.75736C11.1321 5.88258 10.5 7.4087 10.5 9ZM30 6H24.9844C25.3256 6.96341 25.5 7.97796 25.5 9V10.5C25.5 10.8978 25.342 11.2794 25.0607 11.5607C24.7794 11.842 24.3978 12 24 12H9C8.60218 12 8.22064 11.842 7.93934 11.5607C7.65804 11.2794 7.5 10.8978 7.5 10.5V9C7.50003 7.97796 7.67441 6.96341 8.01562 6H3V37.5H30V6Z" fill="#DDD2EF"/>
</svg>